<?xml version="1.0" standalone="no"?>
<!DOCTYPE svg PUBLIC "-//W3C//DTD SVG 20010904//EN"
 "http://www.w3.org/TR/2001/REC-SVG-20010904/DTD/svg10.dtd">
<svg version="1.0" xmlns="http://www.w3.org/2000/svg"
 width="460.000000pt" height="460.000000pt" viewBox="0 0 460.000000 460.000000"
 preserveAspectRatio="xMidYMid meet">

<g transform="translate(0.000000,460.000000) scale(0.100000,-0.100000)"
fill="#000000" stroke="none">
<path d="M2605 3482 c-217 -128 -363 -233 -377 -272 -4 -12 -11 -10 -34 10
-20 17 -24 19 -11 4 21 -25 21 -38 2 -54 -12 -10 -18 -10 -32 1 -16 12 -17 12
-5 -2 10 -14 7 -20 -20 -39 -18 -12 -79 -81 -136 -154 -152 -195 -243 -392
-203 -440 5 -6 9 -15 9 -21 0 -5 5 -11 11 -13 17 -6 13 26 -5 36 -13 7 -14 17
-7 53 9 43 9 44 71 60 66 17 175 77 312 170 46 32 88 55 92 53 8 -5 101 65
126 95 6 8 12 11 12 5 0 -5 6 -2 13 6 7 8 19 16 27 18 33 7 120 52 120 61 0 6
7 11 15 11 8 0 15 7 15 15 0 8 8 15 18 15 10 0 23 5 30 12 8 8 15 8 26 -1 12
-10 14 -9 9 8 -4 16 -1 21 15 21 45 0 51 10 23 38 -14 15 -29 26 -33 24 -4 -1
-23 9 -42 22 l-35 23 28 31 c32 35 43 75 30 110 -8 20 -12 22 -24 12 -12 -10
-15 -9 -15 8 0 11 12 30 26 41 27 21 70 91 56 91 -4 0 -52 -26 -107 -58z m5
-93 c0 -21 -7 -23 -29 -10 -12 8 -12 12 -2 25 16 19 31 12 31 -15z m-30 -33
c0 -2 -7 -6 -15 -10 -8 -3 -15 -1 -15 4 0 6 7 10 15 10 8 0 15 -2 15 -4z
m-246 -227 c-8 -13 -24 -1 -24 18 0 13 3 13 15 3 8 -7 12 -16 9 -21z"/>
<path d="M3465 3385 c-271 -61 -663 -228 -712 -301 -11 -17 -23 -24 -35 -21
-10 3 -18 2 -18 -1 0 -4 -13 -14 -29 -23 -22 -13 -32 -14 -41 -5 -10 8 -11 8
-6 -1 4 -7 -8 -16 -31 -24 -77 -25 -186 -83 -244 -129 -89 -71 -235 -212 -202
-195 15 8 35 15 44 15 9 0 90 25 180 56 90 31 215 72 278 91 63 19 127 41 142
49 15 8 35 14 43 14 8 0 16 4 18 8 5 14 52 22 67 13 34 -22 -23 -57 -109 -67
-88 -10 -132 -22 -280 -76 -186 -68 -302 -120 -342 -153 l-27 -23 42 -10 c23
-6 65 -14 93 -18 53 -6 83 -18 73 -29 -4 -3 -18 -1 -33 5 -15 5 -57 10 -94 10
l-67 0 83 -82 c45 -44 80 -83 78 -86 -3 -2 -28 18 -56 44 -58 56 -104 84 -137
84 -33 0 -29 28 4 33 27 4 27 4 -3 6 -35 1 -50 23 -29 41 8 6 11 18 8 27 -4
10 -8 11 -13 3 -4 -6 -21 -12 -39 -12 -33 -1 -33 -13 0 -13 10 0 19 -4 20 -10
0 -5 6 -19 11 -29 8 -15 7 -22 -6 -31 -15 -12 -15 -13 2 -17 10 -3 30 -29 44
-59 94 -195 95 -199 57 -199 -15 0 -19 7 -19 33 0 17 -17 63 -38 101 -30 57
-42 70 -65 73 -15 2 -37 8 -50 14 -17 7 -12 8 22 4 41 -5 43 -5 30 12 -8 10
-19 21 -26 26 -6 4 -14 20 -18 36 l-6 29 -67 -15 c-37 -9 -76 -22 -87 -29 -19
-14 -19 -14 0 -14 11 0 45 -9 75 -19 l55 -18 -55 -7 c-30 -5 -72 -9 -93 -9
-28 -2 -34 -5 -24 -12 8 -6 33 -42 57 -80 23 -39 56 -86 71 -106 16 -20 29
-40 29 -45 0 -4 7 -16 16 -26 16 -16 15 -18 0 -24 -16 -6 -40 8 -41 24 -1 17
-43 98 -56 109 -23 19 -194 44 -277 41 -74 -3 -76 -2 -82 22 -5 22 -7 23 -13
6 -9 -24 17 -45 57 -46 16 0 49 -14 75 -33 25 -18 69 -46 98 -61 56 -31 75
-56 42 -56 -22 0 -37 -26 -23 -40 5 -5 27 -4 52 3 36 10 45 9 59 -6 16 -15 15
-17 -8 -26 l-24 -10 24 0 c20 -1 23 -5 18 -30 -3 -15 -3 -38 0 -49 5 -19 10
-21 44 -16 28 5 40 3 43 -7 23 -81 33 -103 48 -113 10 -6 18 -15 18 -19 0 -5
7 -15 16 -24 14 -14 16 -14 28 3 12 15 18 16 39 7 26 -12 37 -53 27 -105 -7
-36 -23 -25 -47 29 -15 35 -20 39 -31 27 -11 -11 -10 -14 2 -14 9 0 19 -12 22
-27 4 -16 18 -43 31 -61 13 -17 21 -37 18 -42 -10 -16 -33 -12 -44 7 -8 15 -9
13 -7 -10 2 -15 -3 -51 -11 -80 -13 -52 -10 -107 7 -107 5 0 7 7 4 15 -10 24
2 17 21 -12 10 -16 12 -23 5 -16 -10 9 -20 3 -48 -30 -19 -23 -46 -59 -60 -79
-24 -38 -42 -42 -42 -10 0 13 2 14 9 4 6 -11 10 -10 17 5 4 10 8 23 9 29 0 6
6 19 14 28 21 26 -2 18 -28 -9 -13 -14 -27 -25 -32 -25 -4 0 -22 -20 -39 -44
-16 -25 -40 -48 -53 -52 -12 -3 -41 -16 -65 -27 -58 -27 -63 -16 -10 21 24 16
64 52 88 78 25 27 49 48 53 46 5 -1 6 2 3 7 -4 5 4 29 18 53 50 91 104 328 73
328 -9 0 -11 -12 -9 -38 5 -51 -31 -191 -69 -268 -29 -58 -152 -204 -172 -204
-4 0 -20 -9 -35 -20 -15 -11 -51 -29 -81 -41 l-55 -20 55 48 c118 105 144 138
183 228 33 77 39 102 48 216 11 124 12 130 35 135 13 4 35 4 48 2 17 -4 25 -1
25 8 0 8 -4 14 -10 14 -5 0 -10 7 -10 15 0 19 -27 73 -47 97 -14 16 -17 16
-40 1 -24 -16 -26 -16 -39 2 -16 21 -17 18 -14 -42 2 -56 -17 -89 -90 -157
-76 -70 -175 -137 -303 -205 -99 -52 -246 -115 -253 -108 -3 2 17 12 42 22
101 38 356 181 440 246 28 22 75 64 103 94 44 46 51 59 51 94 0 43 -20 71 -51
71 -11 0 -46 -24 -77 -53 -130 -122 -284 -220 -473 -301 -139 -59 -238 -88
-307 -90 l-58 -1 43 -56 c46 -58 91 -82 128 -68 11 4 31 5 44 2 16 -4 22 -2
17 6 -4 6 0 11 10 11 10 0 14 -3 11 -7 -4 -3 1 -12 12 -19 10 -7 21 -31 25
-52 3 -22 14 -49 23 -61 22 -26 143 -71 191 -71 24 0 42 -8 58 -25 25 -27 64
-32 111 -14 40 15 47 0 68 -161 10 -82 22 -139 28 -137 5 1 15 18 21 37 6 18
17 36 25 38 9 3 12 0 8 -11 -4 -11 0 -13 14 -10 11 3 22 9 25 14 3 5 27 9 55
9 47 0 50 2 66 35 11 22 24 35 36 35 19 0 19 1 0 48 -3 6 -1 12 4 12 10 0 48
-106 46 -128 0 -6 5 -12 13 -12 8 0 14 -4 14 -10 0 -5 -4 -10 -10 -10 -5 0
-10 -5 -10 -10 0 -6 5 -9 11 -8 6 2 23 -32 38 -74 23 -70 44 -99 47 -65 2 35
17 87 25 87 5 0 9 7 9 14 0 14 24 31 78 55 12 6 22 15 22 21 0 6 4 8 10 5 6
-4 10 13 10 45 0 33 4 49 10 45 15 -10 40 14 40 37 0 17 3 18 15 8 11 -9 24
-8 59 5 25 10 43 21 40 26 -3 5 2 6 10 3 9 -4 18 1 22 10 3 9 13 16 20 16 8 0
17 7 21 16 3 8 12 13 19 10 8 -3 14 -2 14 3 0 9 -93 35 -173 50 -55 10 -65 17
-49 33 10 10 20 9 45 -1 71 -29 236 -73 292 -77 32 -3 62 -8 65 -12 3 -4 16
-8 30 -8 14 -1 57 -9 95 -17 143 -32 568 -76 579 -59 2 4 -45 21 -104 37 -63
16 -112 35 -115 43 -4 10 -15 12 -43 8 -24 -4 -32 -3 -23 3 20 13 6 29 -39 42
-25 8 -40 18 -40 28 0 9 -18 26 -40 39 -34 19 -39 26 -30 41 13 25 -5 32 -88
38 -35 2 -75 8 -88 14 -14 5 -37 6 -52 3 -15 -4 -24 -3 -19 1 4 5 -7 15 -24
22 l-32 13 57 57 c31 31 56 60 56 64 0 4 20 37 43 73 24 37 59 110 77 164 18
53 38 100 44 104 6 4 26 8 44 8 29 0 32 -3 32 -31 0 -88 -68 -254 -133 -324
-10 -11 -23 -27 -28 -36 -29 -54 215 -16 266 41 28 31 12 33 -39 4 -60 -34
-70 -26 -14 11 93 60 149 151 169 274 8 48 16 71 26 71 7 0 16 -7 20 -16 5
-15 -8 -101 -23 -137 -5 -14 4 -12 42 12 26 17 57 31 68 31 16 0 21 6 21 29
l0 28 -42 -15 c-25 -10 -44 -24 -47 -36 -9 -36 -13 -12 -8 52 3 41 8 62 16 59
14 -6 18 44 4 60 -5 7 -7 17 -3 23 3 5 1 10 -4 10 -6 0 -11 6 -11 14 0 7 -7
27 -15 42 -8 16 -15 24 -15 18 0 -18 -221 -19 -231 -2 -6 9 -9 6 -9 -9 0 -20
-5 -23 -35 -23 -19 0 -35 5 -35 10 0 6 -5 10 -11 10 -5 0 -8 -4 -5 -9 3 -4 -6
-13 -19 -19 -15 -7 -26 -8 -30 -2 -8 13 -81 13 -103 1 -23 -12 -90 8 -96 29
-3 13 -4 13 -5 0 0 -9 -14 -21 -30 -27 -26 -9 -30 -8 -42 13 -14 28 -31 19
-56 -30 -9 -17 -28 -45 -42 -63 -40 -49 -68 -98 -76 -133 -4 -17 -9 -29 -12
-26 -5 5 -73 -70 -73 -81 0 -3 15 11 34 32 l35 37 6 -34 c5 -28 0 -48 -25 -99
-39 -77 -34 -71 -54 -63 -17 6 -17 50 -1 99 l7 20 -16 -20 c-35 -45 -35 -46
-56 -32 -11 6 -20 16 -20 21 0 5 10 1 21 -10 22 -19 22 -19 9 2 -8 13 -24 21
-43 22 -16 0 -31 2 -33 5 -2 2 -1 44 4 93 7 85 8 89 35 98 17 6 37 6 55 0 24
-8 27 -15 32 -69 l5 -60 14 62 c13 62 34 85 62 67 8 -5 9 -3 4 5 -4 8 4 24 23
42 16 16 35 43 42 59 7 17 16 30 21 30 5 0 9 5 9 10 0 7 -7 7 -21 -1 -15 -8
-24 -8 -32 0 -14 14 -72 14 -99 0 -24 -13 -64 4 -71 30 -4 13 -5 13 -6 -1 -1
-13 -10 -18 -35 -18 -18 0 -39 -6 -45 -14 -7 -8 -35 -16 -64 -19 -29 -3 -64
-8 -79 -12 -48 -13 -34 20 15 34 23 7 56 21 72 31 49 29 104 43 119 31 9 -7
16 -7 23 0 7 7 22 6 48 -5 39 -17 86 -20 145 -10 34 6 36 8 38 52 2 52 4 55
54 80 36 19 88 22 121 7 13 -5 17 -2 17 13 0 31 21 72 37 72 7 0 22 9 33 20
15 15 33 20 75 20 30 0 55 5 55 10 0 6 8 10 17 10 9 0 13 -3 9 -7 -3 -4 15
-13 41 -20 26 -7 57 -15 68 -18 16 -4 24 3 38 34 12 26 26 41 44 46 l27 6 -30
20 c-31 20 -26 26 8 8 14 -8 27 -8 42 -1 11 6 37 13 56 16 113 19 200 27 238
22 40 -5 42 -5 42 22 0 15 7 36 15 46 8 11 15 27 15 36 0 9 9 25 20 35 11 10
20 23 20 29 0 14 84 80 120 95 14 6 32 15 40 19 58 32 92 45 140 53 153 25
160 32 48 48 -204 29 -782 -6 -796 -48 -5 -15 -32 -14 -32 2 0 9 -2 9 -8 -1
-5 -7 -23 -14 -40 -15 -18 -1 -32 -5 -32 -8 0 -4 -28 -12 -62 -18 -102 -20
-221 -57 -323 -100 -52 -23 -100 -41 -107 -42 -7 0 16 -7 52 -15 53 -11 108
-12 295 -5 127 5 232 7 234 5 14 -13 -23 -18 -127 -16 -153 3 -442 -14 -455
-27 -21 -21 121 -57 271 -67 50 -4 92 -10 92 -15 0 -15 -25 -15 -124 3 -56 10
-144 21 -196 24 -52 4 -101 11 -107 16 -19 15 3 51 27 43 15 -5 17 -2 13 14
-5 18 -7 19 -20 5 -9 -8 -21 -13 -28 -10 -8 3 -11 -2 -8 -15 3 -11 -1 -21 -11
-25 -10 -4 -16 -18 -16 -38 -1 -17 -14 -65 -30 -106 -17 -41 -30 -84 -30 -95
0 -27 -27 -65 -46 -65 -24 0 -28 29 -6 53 33 36 50 79 73 183 12 55 29 105 38
112 9 7 14 16 12 20 -2 4 113 50 255 102 143 52 272 104 289 115 37 25 107 44
165 45 100 1 181 13 176 26 -3 7 13 25 36 40 35 25 38 29 23 40 -11 8 -13 14
-5 19 6 4 9 14 6 22 -3 8 1 24 9 36 8 12 15 31 15 42 0 26 21 85 41 115 9 14
19 34 23 46 3 11 33 49 66 84 34 34 59 64 58 65 -2 1 -48 -8 -103 -20z m-3
-57 c-7 -7 -12 -8 -12 -2 0 6 3 14 7 17 3 4 9 5 12 2 2 -3 -1 -11 -7 -17z
m-28 -35 c4 -9 0 -23 -9 -32 -9 -9 -15 -11 -15 -4 0 6 -10 15 -22 19 -21 6
-21 7 -3 20 25 19 41 18 49 -3z m-34 -53 c0 -5 -5 -10 -11 -10 -5 0 -7 5 -4
10 3 6 8 10 11 10 2 0 4 -4 4 -10z m-60 -45 c0 -8 -4 -15 -10 -15 -5 0 -10 7
-10 15 0 8 5 15 10 15 6 0 10 -7 10 -15z m-380 -94 c0 -5 -7 -11 -15 -15 -15
-5 -20 5 -8 17 9 10 23 9 23 -2z m290 -141 c0 -5 -19 -10 -42 -10 -76 0 -222
-21 -244 -35 -19 -12 -23 -12 -28 3 -3 9 -9 22 -12 29 -4 9 21 13 98 16 57 1
131 4 166 5 36 1 62 -2 62 -8z m378 -121 c-12 -7 -24 -7 -35 0 -15 9 -12 10
17 10 29 0 32 -1 18 -10z m132 1 c12 -8 11 -10 -7 -10 -13 0 -23 5 -23 10 0
13 11 13 30 0z m-30 -40 c0 -5 -2 -10 -4 -10 -3 0 -8 5 -11 10 -3 6 -1 10 4
10 6 0 11 -4 11 -10z m-604 -195 c4 -8 29 -22 58 -30 28 -8 58 -20 66 -26 21
-15 -51 -3 -116 19 -44 15 -49 20 -40 35 13 21 25 22 32 2z m344 -74 c0 -11
-5 -10 -20 4 -11 10 -20 22 -20 27 0 4 9 3 20 -4 11 -7 20 -19 20 -27z m-1000
-21 c7 0 36 -22 64 -48 28 -27 58 -51 66 -55 13 -5 13 -7 0 -16 -20 -14 -30
-14 -30 0 0 22 -92 93 -132 103 -16 3 -28 12 -28 20 0 22 13 27 30 11 9 -8 23
-15 30 -15z m827 24 c-3 -3 -12 -4 -19 -1 -8 3 -5 6 6 6 11 1 17 -2 13 -5z
m-46 -34 c5 0 9 -4 9 -10 0 -16 -26 -12 -41 7 -12 15 -12 16 4 10 10 -4 23 -7
28 -7z m76 -6 c-3 -3 -12 -4 -19 -1 -8 3 -5 6 6 6 11 1 17 -2 13 -5z m-414
-51 l29 -31 -46 22 c-49 23 -56 32 -28 38 9 3 17 4 17 4 0 -1 13 -15 28 -33z
m137 -47 c0 -3 -4 -8 -10 -11 -5 -3 -10 -1 -10 4 0 6 5 11 10 11 6 0 10 -2 10
-4z m-100 -26 c0 -5 -2 -10 -4 -10 -3 0 -8 5 -11 10 -3 6 -1 10 4 10 6 0 11
-4 11 -10z m-376 -95 c3 -8 1 -15 -4 -15 -6 0 -10 7 -10 15 0 8 2 15 4 15 2 0
6 -7 10 -15z m41 -5 c3 -5 1 -10 -4 -10 -6 0 -11 5 -11 10 0 6 2 10 4 10 3 0
8 -4 11 -10z m-375 -31 c0 -14 -5 -19 -17 -17 -26 5 -29 38 -4 38 15 0 21 -6
21 -21z m48 -11 c9 -9 4 -18 -18 -40 -42 -39 -52 -35 -27 12 24 44 27 46 45
28z m-453 -48 c3 -5 2 -10 -4 -10 -5 0 -13 5 -16 10 -3 6 -2 10 4 10 5 0 13
-4 16 -10z m185 -27 c-1 -27 -1 -27 -15 -9 -14 19 -12 36 6 36 5 0 9 -12 9
-27z m-194 -220 c9 -34 -7 -58 -37 -58 -19 0 -25 6 -27 28 -5 41 4 57 32 57
19 0 27 -7 32 -27z m1258 -85 c-2 -76 -33 -146 -96 -214 -42 -46 -105 -90
-115 -81 -3 3 17 27 45 52 28 26 58 62 67 81 9 20 21 32 27 28 6 -4 8 -3 4 4
-3 6 1 36 9 68 8 32 15 73 15 90 0 31 13 46 35 40 6 -2 9 -32 9 -68z m56 23
c0 -50 -26 -135 -55 -180 -42 -66 -169 -168 -197 -159 -6 2 12 19 40 37 97 62
156 157 168 269 8 75 10 83 29 76 10 -4 15 -19 15 -43z m46 -48 c-25 -122 -77
-198 -177 -257 -70 -42 -89 -43 -29 -1 96 66 155 165 167 276 6 67 19 87 41
65 11 -10 10 -25 -2 -83z m-1418 34 c25 -23 18 -50 -10 -41 -16 5 -19 2 -14
-13 4 -13 -4 -25 -31 -43 -21 -14 -45 -33 -55 -42 -10 -10 -24 -18 -30 -18 -9
0 -8 4 2 11 13 9 13 10 0 6 -8 -2 -15 -10 -15 -18 0 -8 -10 -15 -23 -17 -12
-2 -20 -8 -17 -13 4 -5 -1 -9 -10 -9 -9 0 -13 5 -10 10 3 6 0 10 -7 10 -7 0
-18 16 -24 35 -11 34 -10 37 28 67 32 25 42 28 48 17 6 -8 5 -16 -2 -20 -17
-11 26 -51 46 -43 15 6 15 9 -2 38 -24 40 -18 69 11 62 12 -3 16 -3 9 0 -10 5
-9 10 4 25 22 24 29 24 55 -2 l21 -21 -4 24 c-2 15 -9 22 -20 20 -10 -2 -18 1
-18 7 0 16 35 18 41 1 4 -8 16 -23 27 -33z m1258 -4 c-7 -61 -41 -146 -76
-190 -25 -33 -25 -29 4 43 13 32 29 86 36 119 11 55 24 85 38 85 2 0 2 -26 -2
-57z m-453 34 c8 -20 -32 -155 -65 -220 -17 -34 -46 -81 -65 -104 -33 -40 -34
-41 -63 -26 -16 8 -32 18 -35 23 -3 4 13 39 35 76 22 38 52 107 67 154 15 47
34 91 42 98 19 16 77 16 84 -1z m137 -14 c0 -80 -78 -259 -148 -343 l-29 -34
-17 31 c-11 21 -21 30 -31 27 -23 -9 -19 3 23 70 43 68 74 139 92 206 16 60
26 70 71 70 36 0 39 -2 39 -27z m133 -21 c-4 -91 -88 -263 -169 -348 -50 -51
-57 -56 -86 -50 -33 6 -51 23 -41 39 3 4 12 6 20 3 8 -3 11 -2 8 4 -3 5 10 31
29 58 46 63 110 192 130 261 21 71 32 83 75 79 36 -3 36 -3 34 -46z m-959 -40
c6 -11 -33 -76 -41 -68 -3 3 0 12 7 21 10 12 9 15 -6 15 -16 0 -16 2 -4 10 9
6 17 5 21 -1 4 -7 9 -4 12 6 4 9 3 13 -2 10 -5 -3 -12 -1 -16 5 -3 5 1 10 9
10 8 0 17 -4 20 -8z m-50 -68 c3 -9 -3 -28 -15 -42 -53 -69 -174 -192 -216
-221 -47 -32 -46 -31 12 22 33 30 88 86 123 125 62 70 63 72 47 96 -15 23 -15
25 2 29 33 9 41 7 47 -9z m-310 -61 c16 -33 16 -36 -1 -49 -10 -7 -22 -14 -27
-14 -5 0 -31 -14 -58 -30 -27 -17 -55 -29 -63 -28 -8 2 -14 -1 -13 -6 0 -11
-22 -26 -39 -26 -6 0 -16 14 -22 31 -13 39 -14 49 -1 29 8 -12 10 -9 10 13 0
31 11 34 45 11 31 -20 33 -2 3 28 -16 16 -17 20 -5 15 9 -3 17 -2 17 4 0 6 4
8 9 5 5 -3 16 5 25 19 10 16 26 25 41 25 14 0 25 4 25 9 0 22 39 -4 54 -36z
m253 7 c-23 -33 -66 -80 -72 -80 -3 0 -1 10 6 21 7 15 8 19 0 15 -6 -4 -20 -2
-31 4 -20 11 -20 11 7 33 48 38 66 45 85 34 13 -9 14 -14 5 -27z m413 -17
c-14 -9 -28 -21 -31 -26 -4 -5 -12 -8 -19 -5 -8 2 1 13 21 26 40 25 65 30 29
5z m-516 -36 c23 -22 13 -47 -37 -97 -51 -50 -74 -63 -63 -35 3 8 0 15 -7 16
-9 0 -9 2 1 6 6 2 9 10 6 15 -4 7 -2 8 4 4 7 -4 12 -14 12 -23 0 -13 3 -13 15
-3 14 12 14 15 -3 34 -22 24 -21 49 4 77 20 22 50 25 68 6z m455 -50 c-6 -17
-13 -38 -15 -46 -3 -8 -7 -12 -10 -9 -8 9 17 98 27 93 4 -3 3 -20 -2 -38z
m-867 20 c-18 -10 -20 -15 -10 -26 11 -11 10 -13 -2 -9 -22 7 -24 36 -3 41 33
9 38 6 15 -6z m538 -6 c-15 -29 -12 -39 7 -16 30 38 6 -10 -52 -104 -31 -49
-61 -93 -67 -97 -6 -4 -4 3 5 17 19 27 23 49 6 32 -17 -17 -71 11 -63 32 6 14
18 19 37 16 4 0 7 5 7 12 0 7 12 28 28 46 19 23 32 30 45 26 9 -4 17 -11 17
-17 0 -5 5 -6 10 -3 6 3 10 11 10 16 0 6 -4 8 -9 4 -5 -3 -12 -1 -16 5 -3 5
-1 10 5 10 6 0 9 4 5 9 -3 6 3 14 12 20 24 14 25 14 13 -8z m435 9 c3 -5 -3
-10 -14 -10 -22 0 -27 -10 -13 -25 18 -20 32 -95 32 -164 0 -57 -3 -71 -15
-71 -12 0 -14 7 -9 26 6 23 5 25 -12 16 -11 -6 -39 -15 -64 -21 -43 -9 -44 -9
-24 7 28 22 87 56 95 54 6 -1 9 19 9 58 0 29 -29 113 -30 90 -1 -10 -3 -11 -6
-3 -13 30 34 70 51 43z m-995 -50 c11 -6 17 -17 14 -25 -4 -8 -1 -15 4 -15 6
0 13 8 15 18 4 13 5 12 6 -5 1 -15 -8 -24 -30 -32 -39 -14 -49 -14 -29 -1 13
9 12 13 -5 26 -19 16 -19 16 5 9 l25 -6 -25 20 c-26 21 -13 28 20 11z m250
-14 c0 -3 -4 -8 -10 -11 -5 -3 -10 -1 -10 4 0 6 5 11 10 11 6 0 10 -2 10 -4z
m70 -48 c0 -5 -9 -4 -20 2 -11 6 -18 15 -14 21 6 11 34 -7 34 -23z m888 -20
c-35 -43 -162 -137 -185 -138 -24 0 -13 28 13 34 34 9 88 45 149 100 28 25 52
45 54 46 2 0 -12 -19 -31 -42z m-1062 -3 c-11 -8 -25 -15 -30 -15 -6 1 0 7 14
15 32 19 40 18 16 0z m-196 -25 c-8 -5 -19 -10 -25 -10 -5 0 -3 5 5 10 8 5 20
10 25 10 6 0 3 -5 -5 -10z m967 2 c13 -8 -5 -28 -89 -101 -32 -28 -51 -20 -22
9 34 34 43 48 36 55 -4 4 0 5 8 3 8 -1 14 2 15 7 2 30 27 43 52 27z m-637 -27
c0 -2 -10 -9 -22 -15 -22 -11 -22 -10 -4 4 21 17 26 19 26 11z m136 -6 c3 -6
1 -16 -4 -21 -7 -7 -8 -17 -2 -28 6 -12 5 -17 -5 -17 -8 0 -11 5 -8 11 4 6 0
5 -9 -2 -24 -19 -42 7 -23 35 8 11 11 23 8 27 -3 3 3 6 15 6 11 0 24 -5 28
-11z m-111 -40 c-22 -22 -49 -45 -60 -51 -11 -6 5 12 35 40 66 62 79 68 25 11z
m1320 -29 c-75 -15 -322 -40 -391 -40 -122 0 -202 -11 -223 -31 -24 -23 -31
-24 -31 -4 0 12 -5 12 -42 -1 -52 -18 -62 -10 -14 12 20 10 36 23 36 30 0 9
40 12 163 11 156 -2 310 6 427 23 30 4 69 8 85 8 25 0 23 -2 -10 -8z m-874
-37 c3 1 2 -2 -2 -6 -7 -10 -39 2 -39 14 0 6 8 6 19 0 10 -6 20 -9 22 -8z
m-52 -31 c-68 -52 -129 -77 -129 -53 0 15 20 24 21 9 0 -9 2 -10 5 -1 3 7 12
9 21 6 12 -5 14 -3 8 7 -5 8 -4 11 2 7 5 -4 25 5 43 18 19 14 38 25 43 25 5 0
-1 -8 -14 -18z m928 12 c-3 -3 -12 -4 -19 -1 -8 3 -5 6 6 6 11 1 17 -2 13 -5z
m63 -24 c0 -5 -7 -10 -16 -10 -8 0 -12 5 -9 10 3 6 10 10 16 10 5 0 9 -4 9
-10z m-237 -27 c-7 -2 -19 -2 -25 0 -7 3 -2 5 12 5 14 0 19 -2 13 -5z m-1183
-23 c-8 -5 -22 -10 -30 -10 -13 0 -13 1 0 10 8 5 22 10 30 10 13 0 13 -1 0
-10z m586 -49 c13 -29 19 -53 13 -56 -5 -4 -9 1 -9 10 0 9 -9 33 -20 55 -20
39 -26 59 -14 47 3 -3 17 -29 30 -56z m264 -2 c15 -28 5 -23 -15 7 -9 15 -12
23 -6 20 6 -4 16 -16 21 -27z m-20 -38 c0 -12 -20 -25 -27 -18 -7 7 6 27 18
27 5 0 9 -4 9 -9z m-430 -10 c0 -12 -20 -25 -27 -18 -7 7 6 27 18 27 5 0 9 -4
9 -9z m320 -7 c0 -8 -4 -12 -10 -9 -5 3 -10 10 -10 16 0 5 5 9 10 9 6 0 10 -7
10 -16z m-67 -76 c28 -65 25 -67 -11 -7 -12 20 -19 39 -15 42 3 4 1 7 -5 7 -7
0 -12 5 -12 10 0 26 18 4 43 -52z m-296 20 c-3 -8 -6 -5 -6 6 -1 11 2 17 5 13
3 -3 4 -12 1 -19z m208 -157 c-3 -6 -11 -11 -17 -11 -6 0 -6 6 2 15 14 17 26
13 15 -4z"/>
<path d="M1690 1780 c0 -5 5 -10 11 -10 5 0 7 5 4 10 -3 6 -8 10 -11 10 -2 0
-4 -4 -4 -10z"/>
<path d="M1790 1730 c0 -5 4 -10 9 -10 6 0 13 5 16 10 3 6 -1 10 -9 10 -9 0
-16 -4 -16 -10z"/>
<path d="M1487 1671 c-3 -14 -1 -18 9 -14 8 3 14 11 14 19 0 21 -17 17 -23 -5z"/>
<path d="M1410 1652 c0 -21 26 -41 40 -32 13 8 12 11 -5 24 -22 17 -35 20 -35
8z"/>
<path d="M1740 1689 c0 -11 5 -17 10 -14 6 3 10 13 10 21 0 8 -4 14 -10 14 -5
0 -10 -9 -10 -21z"/>
<path d="M1615 1589 c-4 -6 -5 -13 -2 -16 7 -7 27 6 27 18 0 12 -17 12 -25 -2z"/>
<path d="M1695 1500 c3 -6 13 -10 21 -10 8 0 14 -4 14 -10 0 -5 -4 -10 -10
-10 -5 0 -10 -7 -10 -16 0 -22 17 -8 36 29 9 18 11 27 4 20 -9 -8 -20 -9 -37
-2 -16 6 -22 5 -18 -1z"/>
<path d="M1678 1453 c7 -3 16 -2 19 1 4 3 -2 6 -13 5 -11 0 -14 -3 -6 -6z"/>
<path d="M2215 2818 l-40 -43 45 40 c25 22 47 41 49 43 2 1 0 2 -5 2 -6 0 -28
-19 -49 -42z"/>
<path d="M2027 2678 c-54 -33 -97 -62 -95 -63 10 -11 91 20 95 36 3 9 18 23
33 29 22 9 85 63 69 59 -2 -1 -48 -28 -102 -61z"/>
<path d="M3888 2657 c-67 -122 -104 -204 -123 -277 -9 -36 -21 -73 -27 -84 -5
-10 -15 -55 -21 -101 l-11 -83 -58 -4 c-55 -4 -90 -20 -75 -34 3 -3 20 -1 37
4 43 16 54 -12 17 -42 -15 -12 -35 -46 -46 -75 -19 -54 -44 -81 -56 -61 -3 5
-15 10 -26 10 -16 0 -19 -5 -14 -20 7 -23 -22 -41 -35 -21 -6 10 -15 9 -40 -4
-17 -9 -29 -19 -26 -22 3 -4 0 -13 -7 -21 -10 -14 -9 -15 8 -7 11 4 38 13 60
19 46 13 142 61 164 83 14 15 22 15 127 1 7 -1 14 -37 18 -92 7 -99 35 -227
62 -277 14 -28 18 -30 26 -16 5 9 16 17 25 17 9 0 61 25 115 56 54 31 117 62
140 69 l43 14 -65 -6 c-36 -3 -67 -7 -68 -9 -2 -1 -16 12 -32 29 -22 25 -35
31 -64 30 -32 -1 -41 5 -38 28 1 4 -26 37 -59 75 -33 37 -58 72 -56 78 2 6 35
13 73 16 l69 5 8 47 c14 77 -20 128 -87 128 -13 0 -26 7 -30 15 -7 20 11 68
23 60 6 -3 15 3 20 13 6 11 42 36 81 56 l70 37 -25 46 c-24 42 -25 47 -10 63
23 25 12 53 -28 73 -20 10 -26 16 -14 16 20 1 20 0 6 57 -9 33 -16 44 -31 44
-14 0 -18 5 -14 16 3 9 6 20 6 26 0 6 6 8 14 5 10 -4 15 8 19 46 3 29 4 53 3
54 -1 2 -23 -34 -48 -80z m32 -241 c-36 -13 -82 -32 -104 -44 l-38 -21 43 -12
c24 -7 76 -20 114 -30 64 -17 65 -18 20 -13 -27 3 -81 9 -120 12 l-70 7 3 30
c2 16 4 30 5 31 28 13 178 63 192 63 11 0 -9 -10 -45 -23z m2 -158 c-9 -9 -15
-9 -24 0 -9 9 -7 12 12 12 19 0 21 -3 12 -12z m-212 -197 c0 -6 -5 -13 -10
-16 -6 -4 -8 -11 -5 -16 7 -10 -6 -12 -28 -3 -24 9 -8 44 19 44 13 0 24 -4 24
-9z m95 -32 c5 -5 -12 -9 -43 -9 -37 0 -52 4 -52 13 0 8 3 16 6 19 7 7 76 -11
89 -23z m175 -334 c0 -2 -7 -5 -15 -9 -9 -3 -15 0 -15 9 0 9 6 12 15 9 8 -4
15 -7 15 -9z"/>
<path d="M1698 2588 c5 -5 16 -8 23 -6 8 3 3 7 -10 11 -17 4 -21 3 -13 -5z"/>
<path d="M1660 2548 l-35 -19 40 3 c29 2 41 8 43 21 4 21 -3 20 -48 -5z"/>
<path d="M1684 2505 c-49 -20 -51 -35 -5 -35 44 0 71 8 71 21 0 5 -6 9 -14 9
-8 0 -16 4 -18 9 -2 5 -17 4 -34 -4z"/>
<path d="M1527 2476 c-4 -9 -3 -26 2 -38 l8 -23 7 22 c4 13 3 30 -2 39 -8 15
-10 15 -15 0z"/>
<path d="M1707 2444 c-77 -18 -89 -27 -52 -35 17 -4 72 -16 124 -28 52 -11 96
-19 98 -17 7 7 -86 96 -99 95 -7 0 -39 -7 -71 -15z"/>
<path d="M1033 2157 l2 -88 -40 2 c-31 2 -39 -1 -36 -12 2 -8 4 -33 4 -56 1
-43 -9 -65 -21 -48 -4 6 -14 11 -22 12 -324 40 -340 43 -340 79 0 17 -6 24
-19 24 -24 0 -38 18 -44 55 -4 27 -4 27 -6 -7 -1 -36 -3 -38 -33 -39 -18 -1
-37 -1 -41 0 -5 1 -6 -3 -2 -9 3 -6 11 -8 16 -5 11 8 12 -6 0 -24 -7 -11 -18
-11 -57 -3 -27 6 -74 13 -104 16 -55 5 -55 5 20 -14 41 -11 83 -19 92 -20 33
0 68 -45 69 -86 l2 -39 10 37 c9 31 15 37 46 42 52 9 86 7 165 -9 106 -21 149
-27 173 -26 12 0 25 -4 28 -9 4 -6 11 -8 16 -5 5 4 9 2 9 -3 0 -14 -27 -22
-47 -16 -17 5 -17 5 0 -6 9 -6 17 -17 17 -25 0 -9 8 -14 23 -12 19 2 22 -3 22
-35 0 -20 -3 -34 -6 -32 -4 2 -9 -3 -13 -11 -11 -30 -35 -16 -39 23 l-4 37 -1
-42 c-2 -37 1 -43 18 -43 11 0 20 -4 20 -9 0 -11 -49 -20 -140 -26 -116 -8
-117 -9 -10 -14 87 -5 104 -9 101 -21 -2 -8 -6 -34 -8 -56 -5 -35 -2 -44 18
-58 29 -20 119 -22 119 -3 0 16 71 110 77 103 3 -2 -2 -17 -10 -33 -8 -15 -17
-38 -21 -50 l-7 -21 58 18 c86 27 131 48 142 67 6 10 11 13 11 6 0 -9 12 -7
42 6 60 25 69 72 46 223 -9 61 -15 79 -30 84 -11 3 -18 13 -16 22 3 13 13 16
48 14 57 -5 132 7 125 19 -4 5 -11 6 -17 3 -6 -4 -14 0 -19 7 -7 11 -9 9 -9
-6 -1 -18 -2 -18 -10 3 -14 34 -1 82 21 82 11 0 19 4 19 10 0 16 -100 3 -194
-25 -49 -14 -99 -25 -110 -23 -36 4 -48 -10 -30 -37 8 -13 14 -34 12 -47 -4
-22 -5 -22 -12 -3 -4 11 -19 45 -32 76 -13 31 -24 72 -25 90 -1 19 -5 45 -9
59 -6 17 -8 -5 -7 -63z m347 -82 c0 -25 -4 -45 -10 -45 -5 0 -10 6 -10 13 0 8
-4 7 -10 -3 -9 -13 -10 -13 -11 0 -1 8 -2 30 -4 48 -2 28 0 32 21 32 22 0 24
-4 24 -45z m-59 -8 c5 -33 4 -36 -17 -35 -18 2 -22 8 -22 33 1 59 29 61 39 2z
m-61 -7 c0 -25 -4 -30 -23 -30 -19 0 -22 5 -21 28 1 15 3 28 3 30 1 1 10 2 21
2 16 0 20 -7 20 -30z m-783 -22 c-3 -7 -5 -2 -5 12 0 14 2 19 5 13 2 -7 2 -19
0 -25z m711 14 c2 -7 -7 -12 -23 -12 -24 0 -26 2 -15 15 14 17 31 16 38 -3z
m-648 -17 l25 -14 -37 -1 c-36 0 -47 8 -31 23 9 9 14 8 43 -8z m496 -23 c-3
-4 17 -17 45 -27 27 -11 49 -23 49 -26 0 -4 -28 -9 -61 -11 -57 -3 -62 -1 -70
21 -7 18 -5 27 8 37 20 15 37 18 29 6z m11 -98 c-3 -3 -12 -4 -19 -1 -8 3 -5
6 6 6 11 1 17 -2 13 -5z m-47 -97 c0 -2 -10 -12 -21 -23 -22 -19 -22 -19 -8 4
12 19 29 30 29 19z m130 -41 c0 -17 -44 -26 -119 -26 -56 1 -56 1 -28 16 15 8
33 12 39 8 7 -4 8 -3 4 4 -4 7 4 14 21 18 15 3 33 7 38 9 16 4 45 -14 45 -29z
m200 -6 c0 -11 -6 -20 -12 -21 -7 0 -29 -2 -48 -4 -181 -21 -192 -16 -53 20
111 29 113 29 113 5z m-259 -49 c19 -8 11 -9 -38 -9 -34 1 -60 4 -58 8 6 10
71 11 96 1z m62 -8 c-7 -2 -19 -2 -25 0 -7 3 -2 5 12 5 14 0 19 -2 13 -5z"/>
<path d="M1838 2119 c6 -7 12 -29 13 -48 0 -20 4 -45 9 -56 7 -19 8 -19 15 -2
4 10 3 29 -4 43 -6 14 -11 33 -11 43 0 11 -8 22 -17 26 -15 5 -16 4 -5 -6z"/>
<path d="M1780 2113 c0 -4 5 -15 10 -23 8 -13 10 -13 10 2 0 9 -4 20 -10 23
-5 3 -10 3 -10 -2z"/>
<path d="M2585 2100 c-3 -5 -1 -10 4 -10 6 0 11 5 11 10 0 6 -2 10 -4 10 -3 0
-8 -4 -11 -10z"/>
<path d="M1723 2075 c7 -13 14 -20 15 -14 5 14 -6 39 -17 39 -5 0 -4 -11 2
-25z"/>
<path d="M1647 2069 c7 -7 15 -10 18 -7 3 3 -2 9 -12 12 -14 6 -15 5 -6 -5z"/>
<path d="M198 2063 c7 -3 16 -2 19 1 4 3 -2 6 -13 5 -11 0 -14 -3 -6 -6z"/>
<path d="M1600 2060 c-8 -5 -10 -10 -5 -10 6 0 17 5 25 10 8 5 11 10 5 10 -5
0 -17 -5 -25 -10z"/>
<path d="M901 2051 c-9 -6 -6 -10 10 -14 28 -8 34 -3 16 11 -7 6 -19 7 -26 3z"/>
<path d="M1791 2044 c0 -11 3 -14 6 -6 3 7 2 16 -1 19 -3 4 -6 -2 -5 -13z"/>
<path d="M3538 2033 c6 -2 18 -2 25 0 6 3 1 5 -13 5 -14 0 -19 -2 -12 -5z"/>
<path d="M3350 2026 c0 -2 7 -6 15 -10 8 -3 15 -1 15 4 0 6 -7 10 -15 10 -8 0
-15 -2 -15 -4z"/>
<path d="M3458 2023 c7 -3 16 -2 19 1 4 3 -2 6 -13 5 -11 0 -14 -3 -6 -6z"/>
<path d="M942 2000 c0 -14 2 -19 5 -12 2 6 2 18 0 25 -3 6 -5 1 -5 -13z"/>
<path d="M1667 2013 c-4 -3 -7 -14 -7 -22 0 -9 -15 -25 -32 -34 -18 -10 -53
-35 -76 -56 -36 -31 -44 -45 -46 -75 -1 -20 1 -36 4 -36 3 0 37 24 75 53 63
47 70 55 67 83 -2 19 3 36 12 44 16 13 20 4 19 -38 -1 -10 2 -10 15 0 38 32
70 68 62 73 -4 3 -16 -7 -26 -22 l-18 -28 -12 30 c-7 17 -13 26 -14 20 0 -5
-4 -4 -8 3 -5 7 -11 9 -15 5z"/>
<path d="M3295 2010 c-3 -5 -1 -10 4 -10 6 0 11 5 11 10 0 6 -2 10 -4 10 -3 0
-8 -4 -11 -10z"/>
<path d="M1515 2000 c-4 -6 -16 -8 -28 -5 -17 5 -19 4 -7 -4 9 -7 13 -23 11
-50 -1 -23 0 -41 4 -41 19 0 86 44 110 72 l28 33 -26 3 c-14 2 -35 -2 -46 -7
-25 -14 -44 -14 -36 -1 3 6 4 10 1 10 -3 0 -8 -5 -11 -10z"/>
<path d="M1428 1979 c7 -8 12 -46 13 -103 1 -50 3 -83 6 -73 2 9 9 15 14 12 5
-4 9 11 8 32 -1 60 -23 136 -39 141 -12 4 -13 2 -2 -9z"/>
<path d="M1343 1973 c9 -2 17 -8 17 -11 0 -59 12 -237 16 -243 9 -14 44 15 44
36 0 15 -2 17 -9 6 -12 -19 -31 -4 -31 25 0 17 6 24 19 24 17 0 18 5 10 46
-18 98 -29 120 -57 121 -15 0 -19 -1 -9 -4z"/>
<path d="M3325 1950 c-3 -5 -1 -10 4 -10 6 0 11 5 11 10 0 6 -2 10 -4 10 -3 0
-8 -4 -11 -10z"/>
<path d="M895 1816 c0 -19 3 -32 8 -29 4 2 7 17 7 34 0 16 -3 29 -7 29 -5 0
-8 -15 -8 -34z"/>
<path d="M1450 1770 c0 -5 5 -10 11 -10 5 0 7 5 4 10 -3 6 -8 10 -11 10 -2 0
-4 -4 -4 -10z"/>
<path d="M4049 1617 c-47 -28 -103 -66 -125 -83 -21 -17 -46 -34 -54 -37 -12
-4 -11 -6 3 -6 10 -1 50 -16 90 -35 89 -41 203 -79 220 -73 6 2 -5 11 -25 20
-41 17 -46 28 -24 50 12 12 13 26 3 86 -8 53 -8 80 0 102 6 16 8 29 5 29 -4 0
-46 -24 -93 -53z m74 -106 c-9 -12 -23 18 -16 35 6 17 8 17 13 -6 4 -14 5 -27
3 -29z m-53 0 c0 -5 9 -11 20 -14 11 -3 20 -10 20 -16 0 -5 -13 -3 -30 7 -30
17 -39 32 -20 32 6 0 10 -4 10 -9z"/>
<path d="M3831 1496 c-9 -10 -8 -15 4 -20 10 -4 15 1 15 14 0 24 -4 25 -19 6z"/>
<path d="M3856 1431 c7 -32 52 -127 94 -201 20 -35 24 -46 11 -31 -12 13 -21
18 -21 13 0 -6 16 -23 35 -38 19 -14 34 -29 32 -33 -1 -3 14 -22 35 -42 21
-21 38 -35 38 -32 0 3 15 -8 33 -23 27 -23 33 -24 35 -10 2 9 -8 37 -22 61
-16 30 -20 45 -12 45 8 0 17 30 25 88 7 48 20 98 28 110 8 13 13 25 11 27 -11
9 -235 77 -277 84 l-51 8 6 -26z m284 -88 c0 -10 -20 -40 -20 -31 0 3 -3 13
-6 22 -4 11 -1 16 10 16 9 0 16 -3 16 -7z m-11 -111 c1 -7 -3 -10 -9 -7 -5 3
-10 18 -9 33 0 24 1 25 9 7 5 -11 9 -26 9 -33z"/>
<path d="M1899 1343 c-13 -16 -12 -17 4 -4 9 7 17 15 17 17 0 8 -8 3 -21 -13z"/>
</g>
</svg>
